<?xml version="1.0" encoding="utf-8"?>
<!-- Generator: Adobe Illustrator 17.0.0, SVG Export Plug-In . SVG Version: 6.00 Build 0)  -->
<!DOCTYPE svg PUBLIC "-//W3C//DTD SVG 1.1//EN" "http://www.w3.org/Graphics/SVG/1.1/DTD/svg11.dtd">
<svg version="1.1" id="Layer_1" xmlns="http://www.w3.org/2000/svg" xmlns:xlink="http://www.w3.org/1999/xlink" x="0px" y="0px"
	 width="100px" height="100px" viewBox="0 0 100 100" enable-background="new 0 0 100 100" xml:space="preserve">
<rect fill="#939393" width="100" height="100"/>
<g>
	<path fill="#D3D3D3" d="M38.064,31.305v-2.332c0-0.791,0.151-1.357,0.454-1.7c0.303-0.342,0.705-0.513,1.205-0.513
		c0.501,0,0.902,0.171,1.206,0.513c0.303,0.343,0.454,0.909,0.454,1.7v9.209c0,0.817-0.151,1.397-0.454,1.74
		c-0.304,0.342-0.705,0.513-1.206,0.513c-0.448,0-0.824-0.158-1.126-0.474c-0.304-0.316-0.482-0.83-0.534-1.541
		c-0.132-2.214-1.331-4.176-3.597-5.889c-3.057-2.345-6.535-3.517-10.435-3.517c-2.556,0-4.967,0.567-7.232,1.699
		c-1.687,0.817-3.031,1.818-4.032,3.004c-1.739,2.055-3.122,4.335-4.15,6.838c-0.738,1.844-1.106,3.926-1.106,6.245v5.81
		c0,4.954,1.791,9.255,5.375,12.904c3.584,3.65,7.747,5.474,12.489,5.474c2.846,0,5.395-0.619,7.648-1.857s4.432-3.109,6.541-5.612
		c0.448-0.554,0.949-0.83,1.502-0.83c0.474,0,0.856,0.146,1.147,0.435c0.289,0.29,0.435,0.659,0.435,1.106
		c0,0.606-0.567,1.529-1.699,2.767c-2.161,2.424-4.592,4.248-7.293,5.474c-2.701,1.225-5.434,1.838-8.201,1.838
		c-2.399,0-4.836-0.462-7.312-1.384c-1.898-0.711-3.466-1.541-4.703-2.49c-1.239-0.948-2.761-2.549-4.565-4.802
		s-3.037-4.334-3.696-6.245c-0.658-1.91-0.988-4.012-0.988-6.304v-6.758c0-3.267,0.876-6.607,2.628-10.02
		c1.752-3.412,4.15-6.033,7.193-7.865c3.043-1.832,6.343-2.747,9.901-2.747C29.394,25.693,34.112,27.565,38.064,31.305z"/>
	<path fill="#D3D3D3" d="M74.228,59.13h-3.794L57.667,30.08h-0.632v39.602h6.126c0.79,0,1.357,0.152,1.699,0.455
		c0.343,0.303,0.514,0.705,0.514,1.205c0,0.474-0.171,0.87-0.514,1.186c-0.342,0.316-0.909,0.474-1.699,0.474H50.909
		c-0.79,0-1.357-0.158-1.699-0.474c-0.343-0.316-0.514-0.712-0.514-1.186c0-0.5,0.171-0.902,0.514-1.205
		c0.342-0.303,0.909-0.455,1.699-0.455h2.806V30.08H51.62c-0.79,0-1.357-0.151-1.699-0.455c-0.343-0.302-0.513-0.704-0.513-1.205
		c0-0.5,0.171-0.902,0.513-1.205c0.342-0.303,0.909-0.455,1.699-0.455h8.142l12.569,28.615L84.702,26.76h8.142
		c0.816,0,1.395,0.152,1.738,0.455c0.343,0.303,0.515,0.705,0.515,1.205c0,0.501-0.172,0.903-0.515,1.205
		c-0.343,0.304-0.922,0.455-1.738,0.455h-2.056v39.602h2.766c0.816,0,1.397,0.152,1.74,0.455c0.341,0.303,0.513,0.705,0.513,1.205
		c0,0.474-0.172,0.87-0.513,1.186c-0.343,0.316-0.923,0.474-1.74,0.474H81.342c-0.79,0-1.364-0.158-1.719-0.474
		c-0.355-0.316-0.534-0.712-0.534-1.186c0-0.5,0.171-0.902,0.513-1.205c0.342-0.303,0.922-0.455,1.74-0.455h6.126V30.08h-0.711
		L74.228,59.13z"/>
</g>
</svg>
