<?xml version="1.0" encoding="utf-8"?>
<!-- Generator: Adobe Illustrator 17.0.0, SVG Export Plug-In . SVG Version: 6.00 Build 0)  -->
<!DOCTYPE svg PUBLIC "-//W3C//DTD SVG 1.1//EN" "http://www.w3.org/Graphics/SVG/1.1/DTD/svg11.dtd">
<svg version="1.1" id="Layer_1" xmlns="http://www.w3.org/2000/svg" xmlns:xlink="http://www.w3.org/1999/xlink" x="0px" y="0px"
	 width="25px" height="25px" viewBox="0 0 25 25" enable-background="new 0 0 25 25" xml:space="preserve">
<rect fill="#939393" width="25" height="25"/>
<g>
	<path fill="#D3D3D3" d="M9.516,7.826V7.243c0-0.198,0.038-0.339,0.114-0.425C9.705,6.733,9.806,6.69,9.931,6.69
		c0.125,0,0.226,0.043,0.301,0.128c0.076,0.086,0.114,0.227,0.114,0.425v2.302c0,0.204-0.038,0.349-0.114,0.435
		c-0.076,0.086-0.176,0.128-0.301,0.128c-0.112,0-0.206-0.04-0.281-0.119c-0.076-0.079-0.12-0.208-0.133-0.385
		C9.483,9.052,9.183,8.561,8.617,8.133C7.853,7.546,6.983,7.253,6.008,7.253c-0.639,0-1.242,0.142-1.808,0.425
		C3.778,7.882,3.442,8.133,3.192,8.429c-0.435,0.514-0.78,1.084-1.037,1.709C1.97,10.6,1.878,11.12,1.878,11.7v1.452
		c0,1.239,0.448,2.314,1.344,3.226c0.896,0.912,1.937,1.369,3.122,1.369c0.711,0,1.349-0.155,1.912-0.464s1.108-0.777,1.635-1.403
		c0.112-0.138,0.237-0.208,0.375-0.208c0.119,0,0.214,0.036,0.287,0.109c0.072,0.073,0.109,0.165,0.109,0.277
		c0,0.152-0.142,0.382-0.425,0.692c-0.54,0.606-1.148,1.062-1.823,1.368c-0.675,0.306-1.359,0.46-2.05,0.46
		c-0.6,0-1.209-0.115-1.828-0.346c-0.474-0.178-0.866-0.385-1.176-0.622c-0.31-0.237-0.69-0.637-1.141-1.201
		s-0.759-1.083-0.924-1.561c-0.165-0.478-0.247-1.003-0.247-1.576v-1.69c0-0.817,0.219-1.652,0.657-2.505
		C2.143,8.223,2.743,7.568,3.503,7.11c0.761-0.458,1.586-0.687,2.475-0.687C7.349,6.423,8.528,6.891,9.516,7.826z"/>
	<path fill="#D3D3D3" d="M18.557,14.782h-0.949L14.417,7.52h-0.158v9.901h1.531c0.198,0,0.339,0.038,0.425,0.114
		c0.086,0.076,0.129,0.176,0.129,0.301c0,0.119-0.043,0.217-0.129,0.296c-0.086,0.079-0.227,0.119-0.425,0.119h-3.063
		c-0.198,0-0.339-0.04-0.425-0.119c-0.086-0.079-0.129-0.178-0.129-0.296c0-0.125,0.043-0.226,0.129-0.301
		c0.086-0.076,0.227-0.114,0.425-0.114h0.701V7.52h-0.524c-0.198,0-0.339-0.038-0.425-0.114c-0.086-0.075-0.128-0.176-0.128-0.301
		c0-0.125,0.043-0.226,0.128-0.301c0.086-0.076,0.227-0.114,0.425-0.114h2.036l3.142,7.154l3.093-7.154h2.036
		c0.204,0,0.349,0.038,0.434,0.114c0.086,0.076,0.129,0.176,0.129,0.301c0,0.125-0.043,0.226-0.129,0.301
		c-0.086,0.076-0.23,0.114-0.434,0.114h-0.514v9.901h0.692c0.204,0,0.349,0.038,0.435,0.114c0.085,0.076,0.128,0.176,0.128,0.301
		c0,0.119-0.043,0.217-0.128,0.296c-0.086,0.079-0.231,0.119-0.435,0.119h-3.053c-0.198,0-0.341-0.04-0.43-0.119
		c-0.089-0.079-0.133-0.178-0.133-0.296c0-0.125,0.043-0.226,0.128-0.301c0.086-0.076,0.231-0.114,0.435-0.114h1.531V7.52h-0.178
		L18.557,14.782z"/>
</g>
</svg>
